<svg width="283" height="130" viewBox="0 0 283 130" fill="none" xmlns="http://www.w3.org/2000/svg">
<path opacity="0.3" d="M274.733 129.499C281.436 122.709 283.758 112.883 281.495 104.663C279.15 96.1484 271.784 90.5804 262.53 89.8408C253.597 89.1316 243.54 92.8098 237.863 100.452C232.552 107.602 231.179 118.53 239.19 123.009C245.955 126.79 256.648 124.372 261.488 117.369C266.328 110.365 264.709 101.181 259.361 95.9641C252.61 89.3843 241.415 90.8856 232.356 93.9721C221.372 97.6946 210.392 104.675 198.75 103.876C189.571 103.245 181.614 97.9054 177.39 90.4874C175.247 86.7879 174.163 82.5317 174.235 78.1041C174.357 73.2699 176.452 67.764 180.596 64.3615C185.206 60.5759 191.027 61.5073 194.271 65.4687C197.832 69.8275 197.465 76.0279 196.888 81.5892C195.783 92.2095 193.061 103.897 184.999 112.475C177.852 120.062 166.339 124.938 156.992 120.871C146.397 116.26 143.367 104.152 143.821 93.3493C144.068 87.4888 145.097 81.5903 146.076 75.7331C147.07 69.7783 148.107 63.8206 148.812 57.8499C150.136 46.537 150.198 35.0766 146.47 24.6697C142.974 14.9068 136.218 6.46613 126.043 2.68039C116.576 -0.857928 105.548 -0.369179 95.2183 2.18446C82.3064 5.36359 70.1138 11.5031 57.9737 17.1178L19.0326 35.1245L0.360759 43.76C-0.0411529 43.9457 0.145756 44.5403 0.546679 44.3586L39.021 26.5688C51.5369 20.7797 63.9819 14.7178 76.6478 9.31098C87.9244 4.50027 99.8566 0.578221 111.823 0.816848C117.122 0.922119 122.343 1.83124 127.042 3.81187C132.132 6.00473 136.484 9.37532 139.747 13.6526C154.09 32.155 148.224 57.9124 144.637 80.4233C142.932 91.1481 141.559 102.729 146.755 112.107C148.997 116.164 152.404 119.675 156.843 121.55C160.888 123.214 165.547 123.464 170.076 122.26C179.905 119.743 187.677 112.104 191.939 103.342C194.317 98.4387 195.752 93.2416 196.663 88.0631C197.592 82.7726 198.449 77.0724 197.668 71.9015C197.002 67.4987 194.572 63.1796 190.076 61.6959C186.057 60.3725 181.714 62.0639 178.721 65.2884C172.2 72.3112 172.527 82.3262 176.126 89.5818C179.697 96.7757 186.62 102.246 194.901 104.002C205.444 106.23 216.062 101.209 226.071 97.0574C235.551 93.1232 247.742 89.097 256.458 94.5538C263.421 98.9122 266.182 109.13 261.119 116.792C256.008 124.538 243.279 126.704 237.251 120.706C230.023 113.52 236.111 100.701 244.346 95.1687C252.581 89.6359 263.799 88.835 271.734 93.1651C279.989 97.677 283.154 107.554 281.001 116.845C279.992 121.353 277.641 125.617 274.244 129.099C273.928 129.42 274.423 129.802 274.733 129.499Z" fill="black"/>
</svg>
