<svg width="520" height="271" viewBox="0 0 520 271" fill="none" xmlns="http://www.w3.org/2000/svg">
<path opacity="0.3" d="M17.5428 0.242869C4.10234 11.9547 -1.54695 30.0982 1.59524 45.956C4.8524 62.3829 17.893 74.069 35.1066 76.9611C51.7231 79.7439 71.0255 74.4398 82.6618 60.9555C93.5457 48.3412 97.5665 27.9666 83.1746 18.2287C71.0198 10.0073 50.6941 12.8337 40.7099 25.2493C30.7258 37.6648 32.5348 55.2364 41.8477 65.9337C53.6027 79.4273 74.7462 78.4103 92.1031 74.06C113.146 68.8225 134.614 57.4444 156.288 60.836C173.375 63.5102 187.551 74.8618 194.469 89.5261C197.986 96.8453 199.45 105.042 198.728 113.375C197.856 122.466 193.207 132.504 185.002 138.245C175.876 144.634 165.109 141.936 159.567 133.945C153.484 125.154 154.994 113.527 156.812 103.14C160.289 83.3028 166.933 61.716 183.154 46.8555C197.531 33.7135 219.717 26.3875 236.662 35.5653C255.872 45.9716 259.933 69.2815 257.649 89.567C256.408 100.572 253.7 111.522 251.092 122.403C248.442 133.464 245.711 144.525 243.599 155.663C239.62 176.77 237.982 198.359 243.575 218.576C248.818 237.542 260.336 254.543 278.868 263.325C296.11 271.527 316.804 272.391 336.468 269.25C361.046 265.349 384.67 255.752 408.127 247.136L483.368 219.503L519.445 206.251C520.221 205.966 519.951 204.816 519.176 205.093L444.838 232.392C420.655 241.276 396.569 250.686 372.156 258.826C350.421 266.067 327.578 271.527 305.223 269.14C295.323 268.083 285.677 265.525 277.149 261.031C267.918 256.074 260.225 249.017 254.689 240.428C230.313 203.235 244.707 155.641 254.405 113.796C259.019 93.8595 263.125 72.2559 254.65 53.7395C250.994 45.7312 245.087 38.5629 237.032 34.3106C229.685 30.5195 221.004 29.2938 212.371 30.8288C193.649 33.9822 178.095 47.12 168.957 62.9441C163.859 71.8004 160.484 81.3627 158.091 90.9748C155.652 100.795 153.292 111.4 154.066 121.271C154.727 129.677 158.7 138.21 166.915 141.735C174.256 144.879 182.606 142.395 188.634 136.802C201.764 124.622 202.482 105.694 196.714 91.4376C190.988 77.3013 178.763 65.8708 163.504 61.2207C144.077 55.3157 123.547 63.0594 104.27 69.2627C86.0141 75.1426 62.6729 80.7571 47.0907 69.0616C34.643 59.7202 30.8353 40.0163 41.3248 26.3952C51.9151 12.6251 76.0155 10.6029 86.4961 22.8835C99.0622 37.5973 85.9715 60.7695 69.8318 69.8638C53.6921 78.9581 32.5985 78.6512 18.3288 69.2058C3.48436 59.366 -1.12449 40.2396 4.13658 23.0767C6.62261 14.7434 11.5866 7.0894 18.4047 1.07673C19.0392 0.522756 18.1628 -0.278497 17.5428 0.242869Z" fill="black"/>
</svg>
